<svg id="Capa_1" data-name="Capa 1" xmlns="http://www.w3.org/2000/svg" fill="#fff"
    viewBox="0 0 1080 1080">
    <defs>
        <style>
            .cls-1{fill:#fff;}
        </style>
    </defs>
    <rect class="cls-1" width="0" height="0" />
    <path
        d="M240.11,356.35c1.72-.38,1.62-2.07,2.09-3.2,4-9.5,10.86-15.46,20.78-18.16,29.91-8.15,59.78-16.5,89.75-24.45,5.3-1.4,7.37-3.3,7.29-9.23-.39-28.36-.19-56.72-.17-85.09,0-21.73,13.34-35.24,34.93-35.25q145.83,0,291.67,0c21.37,0,34.83,13.47,34.92,34.69,0,4.49.1,9,0,13.49-.17,5.85-3.72,9.71-8.76,9.75s-8.67-3.85-8.8-9.65c-.11-5.09.09-10.18-.06-15.26-.25-9.12-5.93-14.9-15-15.4-1.56-.09-3.13,0-4.69,0h-287c-14.83,0-19.6,4.79-19.6,19.68V482.31a36.91,36.91,0,0,1-.11,5.86c-.8,4.89-3.86,7.75-8.8,7.72-4.67,0-7.6-2.85-8.52-7.4a30,30,0,0,1-.17-5.85q0-74.53,0-149V326.7c-16.44,4.48-32.41,8.83-48.37,13.2q-21.45,5.87-42.89,11.76c-9,2.49-12.35,8.19-9.88,17.21q41.44,151.51,83,303,10.9,39.78,21.77,79.57c2.68,9.75,8.4,13.19,18,10.58Q499,729.85,617,697.46c-2.43-1.5-4.68-.83-6.76-.84q-107.7-.06-215.39,0c-18.23,0-31.33-10.4-34.52-27.15a37.13,37.13,0,0,1-.5-7q0-65.73-.05-131.45c0-3.65.26-7.09,3.38-9.52a8.18,8.18,0,0,1,8.79-1.26,8.33,8.33,0,0,1,5.36,7.11c.24,2.53.1,5.09.1,7.63q0,62.79,0,125.58c0,12.91,5.58,18.46,18.62,18.46q144.36,0,288.74,0c13.65,0,18.94-5.43,18.94-19.33q0-191.88,0-383.78c0-9.43,2.83-13.62,9.06-13.43,6,.19,8.54,4.24,8.54,13.42s.17,18.39-.08,27.58c-.1,3.73.86,5.24,4.77,6.28,29.78,7.91,59.33,16.73,89.22,24.17,21.11,5.25,29,24.19,23.89,42-17.33,60.56-33.49,121.45-50.12,182.21a28.55,28.55,0,0,1-1.63,5c-2.14,4.41-5.61,6.43-10.52,5s-7.27-5.81-5.85-11.16c3.52-13.19,7.26-26.32,10.87-39.48q20.15-73.35,40.24-146.7c3.09-11.27.2-16.4-11.1-19.52q-43.41-12-86.87-23.9a23.58,23.58,0,0,0-2.82-.36V659.71c0,23.84-13.07,36.85-37,36.88-4.1,0-8.21,0-12.32,0-8.55,0-17.06-1.55-23.3,7.64-3.72,5.48-11.56,6-18,7.73q-25.95,7.13-51.91,14.21a41,41,0,0,0-3.85,1.55c42.37,11.67,84,23.19,125.64,34.53,8.79,2.39,14.58-1.37,17.08-10.48Q738.37,676.44,759,601.1c.31-1.13.63-2.25,1-3.36,1.89-5.66,6-8.11,11.15-6.67,4.66,1.3,7.08,5.72,5.65,11.17-3.5,13.39-7.18,26.74-10.84,40.1-10.29,37.62-20.67,75.22-30.86,112.87-3.84,14.19-12,23.39-27.19,25.15-.23,0-.4.58-.6.88h-7c-46.41-10.91-92.13-24.4-138-37.33-14.2-4-27.16-4.66-41.59-.39-41,12.14-82.52,22.8-123.77,34.24-6,1.67-12.16,2.43-18.28,3.48h-7c-15.53-2-23.26-11.91-27.1-26.09C331.46,707,318.16,659,305,610.91q-20.88-76.36-41.86-152.71c-6.95-25.25-13.73-50.55-20.82-75.77-1.21-4.32-.94-8.87-2.22-13.17Z" />
    <path
        d="M494,467.78a64.18,64.18,0,0,1-14.79-1.94,47.41,47.41,0,0,1-18.08-8.31,50,50,0,0,1-6.26-6l-.65-.7c-.31-.33-.62-.64-.93-.95.91.5,1.83,1,2.77,1.58A28.16,28.16,0,0,0,469,455.56c.76,0,1.53.07,2.29.07a21.43,21.43,0,0,0,8.48-1.52c3.22-1.34,6.77-4.61,6.92-8.61.18-4.74-4.27-8.62-8.38-9.13a13.54,13.54,0,0,0-1.68-.11c-4.19,0-7.43,2-9.78,3.74a10.56,10.56,0,0,1-6.35,2.23,11,11,0,0,1-2.26-.25,18.58,18.58,0,0,1-8.09-4.45,74.17,74.17,0,0,1-8.3-8.64,39.69,39.69,0,0,0-15.39-11.09,38.26,38.26,0,0,0-6.22-2,31.4,31.4,0,0,1,3.28.2c4.78.52,11,1.45,16.73,4l.17.07c3.59,1.61,7.31,3.27,11.11,4.65a35.83,35.83,0,0,0,12.14,2.54,22.75,22.75,0,0,0,2.62-.15,11.72,11.72,0,0,0,1.45-.23,3.88,3.88,0,0,0,3-3.15,3.67,3.67,0,0,0-1.77-3.68l-.08-.06a20.92,20.92,0,0,0-5.13-2.51l-1.34-.52a39.81,39.81,0,0,1-7.46-3.92c1.68.66,3.37,1.27,5.12,1.8a101.94,101.94,0,0,0,10.21,2.41,70.9,70.9,0,0,0,9.26,1.29l3.19.24c3,.23,6.15.47,9.28.47,1.15,0,2.21,0,3.26-.09,1.21-.08,2.42-.14,3.64-.21,4.32-.25,8.79-.5,13.22-1,4.06-.47,8.14-1.09,12.09-1.68l4.9-.74c3.47-.5,7-.88,10.48-1.25,3-.32,6.14-.66,9.22-1.07a66.66,66.66,0,0,1,6.78-.46c1.43-.05,2.91-.1,4.38-.21,6.12-.43,12.59-.64,19.78-.64,5.6,0,11.68.12,19.15.4,6.4.23,12.75.9,20.33,1.84,5,.62,10.18,1.53,15.45,2.72a143,143,0,0,1,15,4.19,84.54,84.54,0,0,1,18,8.47A22.55,22.55,0,0,1,676,438a2.35,2.35,0,0,1-.08,2.27c-1.23,2.19-3.23,3.64-6.28,4.58-8.67,2.66-19.75,6.57-29.71,13.49-.27-3.06-2.18-5.74-5.5-7.53a41.18,41.18,0,0,0-14-4.25,76.39,76.39,0,0,0-10.47-.83h-1.26a138.22,138.22,0,0,0-19.06,1.62l-.77.1c-4.36.59-8.63,1.4-13,2.25-3.1.6-6.5,1.37-10.7,2.43-3,.75-6,1.51-9,2.28s-6.16,1.71-9.12,2.61l-2.87.87c-3.22,1-6.55,2-9.82,3.05s-6.89,2.13-11.42,3.31l-.47.13a36.47,36.47,0,0,1-4.49,1c-2.6.35-5.68.79-8.75,1.41a67.21,67.21,0,0,1-12.55.93l-1.94,0Z" />
    <path
        d="M579.78,414.67c5.55,0,11.61.12,19,.39,6.3.23,12.58.9,20.09,1.83,4.89.61,10,1.51,15.18,2.68a136.76,136.76,0,0,1,14.74,4.1,81.75,81.75,0,0,1,17.4,8.19,20,20,0,0,1,7.17,7.24c-.6,1-1.7,2.25-4.6,3.14-8,2.44-17.92,5.93-27.31,11.79a13.57,13.57,0,0,0-5.77-5.62,44.14,44.14,0,0,0-14.93-4.55,78.66,78.66,0,0,0-10.85-.86h-1.27a139.14,139.14,0,0,0-19.43,1.65l-.76.1c-4.44.59-8.75,1.41-13.15,2.27-3.16.61-6.61,1.39-10.85,2.46l-9,2.28c-3.14.8-6.24,1.74-9.24,2.65l-2.42.74-.4.12c-3.25,1-6.62,2-9.93,3.08s-6.78,2.09-11.26,3.27l-.47.12a36.73,36.73,0,0,1-4.14.93c-2.65.35-5.78.8-8.94,1.43a64.22,64.22,0,0,1-12,.88l-1.95,0H494a61.6,61.6,0,0,1-14.16-1.87,45.62,45.62,0,0,1-12.72-5c.57.07,1.15.12,1.72.15.88.05,1.68.07,2.45.07a24.13,24.13,0,0,0,9.54-1.73c4-1.67,8.43-5.84,8.63-11.06.24-6.34-5.4-11.31-10.81-12a15.22,15.22,0,0,0-2-.13c-5,0-8.94,2.44-11.43,4.28a7.77,7.77,0,0,1-4.7,1.69,8.15,8.15,0,0,1-1.67-.19,16.07,16.07,0,0,1-6.88-3.84,72,72,0,0,1-8-8.32,39.36,39.36,0,0,0-4.13-4.24c3.47,1.55,7.05,3.13,10.74,4.48a38.62,38.62,0,0,0,13.09,2.7,25.89,25.89,0,0,0,2.93-.17h.08a11.77,11.77,0,0,0,1.74-.29,6.67,6.67,0,0,0,5.1-5.41,6.33,6.33,0,0,0-.5-3.6c2.29.38,4.4.63,6.38.76l3.17.23c3.07.24,6.25.48,9.49.48,1.2,0,2.32,0,3.42-.1l3.62-.21c4.37-.24,8.88-.5,13.4-1,4.11-.48,8.22-1.1,12.2-1.71l4.87-.73c3.42-.49,7-.87,10.37-1.24,3-.32,6.18-.66,9.3-1.08,2-.28,4.22-.35,6.5-.43,1.46,0,3-.11,4.49-.21,6-.43,12.46-.64,19.59-.64m-135.21-8.82a.29.29,0,0,0-.3.19,1,1,0,0,0,.18.87c.65.81,1.35,1.57,2,2.35a38.57,38.57,0,0,0,14.89,10.29,25.85,25.85,0,0,1,5.88,2.7c.39.29.82.54.74,1.08a1.15,1.15,0,0,1-1,.88,7.69,7.69,0,0,1-1.07.17,20.12,20.12,0,0,1-2.31.13,32.72,32.72,0,0,1-11.19-2.37c-3.77-1.37-7.44-3-11.1-4.65a58.07,58.07,0,0,0-17.55-4.24,38.41,38.41,0,0,0-4.14-.22,79.1,79.1,0,0,0-15.58,2c-.8.16-1.43.8-2.27.95-.58.1-.35.66-.37,1s.3.61.7.61h0c.37,0,.73,0,1.09,0,1.92-.14,3.82-.23,5.72-.23a42,42,0,0,1,16.4,3,36.68,36.68,0,0,1,14.33,10.32,75.17,75.17,0,0,0,8.62,8.95,21.48,21.48,0,0,0,9.3,5.05,13.39,13.39,0,0,0,2.85.32,13.21,13.21,0,0,0,8-2.78c2.45-1.8,5.05-3.19,8.14-3.19a12,12,0,0,1,1.33.08c2.9.37,6.08,3.19,6,6.29-.1,2.6-2.71,5.11-5.22,6.15a18.93,18.93,0,0,1-7.41,1.31c-.71,0-1.42,0-2.14-.06a25.81,25.81,0,0,1-11.69-3.7c-5.85-3.44-11.82-6.49-18.71-7.38a10,10,0,0,0-1.21-.08,42.1,42.1,0,0,0-4.92.6c-.94.11-.66,1.05-.61,1.68,0,.38.18.49.37.49a4.62,4.62,0,0,0,.67-.16,10.56,10.56,0,0,1,2.08-.21,17.23,17.23,0,0,1,5.56,1.1,28.36,28.36,0,0,1,11.51,7.61,57.18,57.18,0,0,0,7.27,7,50.39,50.39,0,0,0,19.11,8.8,67.86,67.86,0,0,0,15.42,2h.82c5-.09,10,0,15-1,2.81-.57,5.7-1,8.57-1.38a43.91,43.91,0,0,0,5.29-1.19c3.89-1,7.76-2.1,11.59-3.36,3.37-1.12,6.78-2.13,10.18-3.16,3.8-1.14,7.59-2.34,11.44-3.32l9-2.28c3.5-.88,7-1.71,10.55-2.4,4.26-.82,8.52-1.63,12.83-2.21a139.59,139.59,0,0,1,19.46-1.7h1.27a73.06,73.06,0,0,1,10.06.8,39,39,0,0,1,13.09,4c3,1.6,5.31,4.5,3.44,8.8-.19.44-.36,1,.08,1.29a1.14,1.14,0,0,0,.64.19,1.37,1.37,0,0,0,.83-.29c.66-.49,1.26-1.07,1.93-1.56,9.19-6.77,19.61-10.87,30.42-14.18a12.85,12.85,0,0,0,7.88-5.87,5.11,5.11,0,0,0,.12-4.91,25.33,25.33,0,0,0-9.23-9.58,87.21,87.21,0,0,0-18.56-8.75,144.66,144.66,0,0,0-15.33-4.27c-5.19-1.17-10.45-2.11-15.72-2.77-6.83-.84-13.7-1.61-20.57-1.86-6.41-.24-12.83-.4-19.24-.4-6.67,0-13.33.18-20,.65-3.79.27-7.61.17-11.35.68-6.56.89-13.16,1.38-19.72,2.33-5.63.82-11.25,1.75-16.91,2.41s-11.14.87-16.71,1.21c-1,.07-2.06.09-3.09.09-4.1,0-8.2-.42-12.29-.7a70.71,70.71,0,0,1-8.91-1.24,100.76,100.76,0,0,1-9.93-2.35,91.67,91.67,0,0,1-8.94-3.38c-2.28-1-4.39-2.35-6.85-2.86a2.4,2.4,0,0,0-.53-.12Z" />
</svg>